<svg role="img" width="1024" height="1024" viewBox="0 0 1024 1024" xmlns="http://www.w3.org/2000/svg">
  <title>Rounded Discord mark — Icon Composer optimized</title>
  <path
    fill="none"
    stroke="#000000"
    stroke-width="21.5"
    stroke-linecap="round"
    stroke-linejoin="round"
    shape-rendering="geometricPrecision"
    d="M360.916 125.703C292.267 139.443 228.544 162.253 180.203 186.752C162.624 193.933 147.243 207.027 136.256 223.501C37.376 378.944-21.952 759.104 43.968 797.12C98.901 828.8 173.611 856.256 253.739 872.869A3.415 3.282 0 0 0 257.439 871.703C277.725 852.695 295.809 831.575 311.318 812.812A3.34 3.21 0 0 0 309.489 808.347C280.801 797.889 253.488 785.137 227.212 770.657A3.384 3.252 0 0 1 226.878 765.263C232.407 761.279 237.94 757.14 243.218 752.954A3.265 3.138 0 0 1 246.628 752.51C419.242 828.259 606.112 828.259 776.686 752.51A3.248 3.122 0 0 1 780.136 752.912C785.419 757.093 790.947 761.279 796.52 765.263A3.384 3.252 0 0 1 796.229 770.652A540.482 519.493 0 0 1 713.917 808.305A3.366 3.236 0 0 0 712.129 812.812C727.967 831.82 746.051 852.94 765.963 871.661A3.34 3.21 0 0 0 769.664 872.869C850.389 856.256 925.099 828.8 980.032 797.12C1045.952 759.104 986.624 378.944 887.744 223.501C876.757 207.027 861.376 193.933 843.797 186.752C795.456 162.253 731.733 139.443 662.821 125.698C661.419 125.504 660.1 126.349 659.371 127.265C650.432 141.133 642.082 159.296 635.051 173.235C632.414 179.149 627.14 182.106 620.548 181.261C549.355 171.546 474.645 171.546 403.452 181.261C396.86 182.106 391.586 179.149 388.949 173.235C381.918 159.296 373.568 141.133 364.366 127.265C363.46 126.349 362.142 125.504 360.916 125.703Z"
  />
  <path
    fill="#000000"
    fill-rule="evenodd"
    clip-rule="evenodd"
    shape-rendering="geometricPrecision"
    d="M360.916 125.703C292.267 139.443 228.544 162.253 180.203 186.752C162.624 193.933 147.243 207.027 136.256 223.501C37.376 378.944-21.952 759.104 43.968 797.12C98.901 828.8 173.611 856.256 253.739 872.869A3.415 3.282 0 0 0 257.439 871.703C277.725 852.695 295.809 831.575 311.318 812.812A3.34 3.21 0 0 0 309.489 808.347C280.801 797.889 253.488 785.137 227.212 770.657A3.384 3.252 0 0 1 226.878 765.263C232.407 761.279 237.94 757.14 243.218 752.954A3.265 3.138 0 0 1 246.628 752.51C419.242 828.259 606.112 828.259 776.686 752.51A3.248 3.122 0 0 1 780.136 752.912C785.419 757.093 790.947 761.279 796.52 765.263A3.384 3.252 0 0 1 796.229 770.652A540.482 519.493 0 0 1 713.917 808.305A3.366 3.236 0 0 0 712.129 812.812C727.967 831.82 746.051 852.94 765.963 871.661A3.34 3.21 0 0 0 769.664 872.869C850.389 856.256 925.099 828.8 980.032 797.12C1045.952 759.104 986.624 378.944 887.744 223.501C876.757 207.027 861.376 193.933 843.797 186.752C795.456 162.253 731.733 139.443 662.821 125.698C661.419 125.504 660.1 126.349 659.371 127.265C650.432 141.133 642.082 159.296 635.051 173.235C632.414 179.149 627.14 182.106 620.548 181.261C549.355 171.546 474.645 171.546 403.452 181.261C396.86 182.106 391.586 179.149 388.949 173.235C381.918 159.296 373.568 141.133 364.366 127.265C363.46 126.349 362.142 125.504 360.916 125.703ZM342.187 654.131C291.733 654.131 250.159 607.808 250.159 550.921C250.159 494.037 290.927 447.714 342.191 447.714C393.852 447.714 435.021 494.443 434.214 550.925C434.214 607.808 393.446 654.131 342.187 654.131ZM682.445 654.131C631.991 654.131 590.417 607.808 590.417 550.921C590.417 494.037 631.181 447.714 682.445 447.714C734.106 447.714 775.275 494.443 774.468 550.925C774.468 607.808 734.106 654.131 682.445 654.131Z"
  />
</svg>
