<?xml version='1.0' encoding='utf-8'?>
<svg xmlns="http://www.w3.org/2000/svg" version="1.1" role="img" viewBox="0 0 2122 2122">
  <title>Sakura 05 deep details</title>
  <path style="fill:#61043B;" d="M896.484,1033.354l-0.038,0.358l-195.557-45.598c63.233,26.617,129.09,53.647,196.423,61.177v-0.002  C896.137,1044.02,895.904,1038.688,896.484,1033.354z" />
  <path style="fill:#61043B;" d="M655.823,869.692l248.512,139.525c1.967-3.7,4.25-7.353,6.802-10.939l-0.22,0.308  C839.764,936.302,746.025,901.826,655.823,869.692z" />
  <path style="fill:#61043B;" d="M912.278,1132.077c0.17,0.788,0.355,1.574,0.56,2.355  C912.633,1133.651,912.447,1132.865,912.278,1132.077z" />
  <path style="fill:#61043B;" d="M982.369,1193.305c-82.186,51.854-141.927,135.338-198.3,215.882l208.133-210.385L982.369,1193.305z" />
  <path style="fill:#61043B;" d="M1011.927,1209.831l-101.724,187.312c44.078-55.995,89.333-114.6,113.914-180.497L1011.927,1209.831z  " />
  <path style="fill:#61043B;" d="M1240.124,1002.98c-0.112-0.627-0.209-1.256-0.339-1.88l170.281-61.886  c-59.126,10.713-120.11,22.26-175.003,45.427c-0.236-0.642-0.509-1.269-0.776-1.9c-0.014,0.007-0.025,0.015-0.039,0.021  c2.558,6.558,4.512,13.333,5.837,20.222C1240.098,1002.983,1240.11,1002.98,1240.124,1002.98z" />
  <path style="fill:#61043B;" d="M1214.273,1075.086c-1.569-7.047-4.386-13.576-7.006-20.268c-3.071-7.844-6.147-15.718-8.559-23.795  c-4.55-15.235-5.026-30.39-1.384-45.89c1.844-7.849,4.79-15.105,7.774-22.558c1.895-4.731,3.123-9.524,1.812-14.584  c-1.196-4.617-3.808-8.955-6.665-12.999c-2.096-1.918-1.986-1.914-4.247-3.636l-0.95-0.715  c-7.748-5.771-16.249-10.515-25.347-13.959c-14.966-5.665-31.987-7.992-46.865-2.095c-9.214,3.653-17.006,10.195-25.967,14.421  c21.686-92.212,8.031-191.331-6.03-286.213l-6.458,290.442c-7.904,1.766-16.121,2.114-24.453,1.87l-52.43-196.87  c6.023,66.067,12.859,134.479,35.911,195.86c-5.815-0.458-11.62-0.937-17.351-1.162c-6.13-0.24-12.965,0.572-20.187,2.235  c-9.914,6.405-18.435,14.799-24.491,25.69c-5.958,10.715-9.313,22.696-11.03,34.783c-0.96,6.765-1.079,13.545-1.75,20.326  c-0.752,7.59-2.941,15.022-5.308,22.244c-4.828,14.725-11.265,29.208-13.138,44.717c-1.731,14.34,2.681,28.593,13.551,38.462  c10.11,9.181,23.678,11.5,36.264,15.502c7.089,2.254,14.135,5.279,19.968,9.99c4.309,3.48,7.553,7.942,11.028,12.202  c9.975,12.231,23.27,23.532,38.709,27.92c13.563,3.855,27.497,1.047,39.52-5.966c7.061-4.119,13.423-9.426,19.212-15.171  c4.672-4.637,8.797-9.755,13.808-14.049c7.968-6.828,17.219-11.979,26.523-16.74c15.34-7.849,35.398-15.21,43.453-31.759  C1216.497,1094.475,1216.371,1084.516,1214.273,1075.086z" />
  <path style="fill:#61043B;" d="M1239.515,1046.545c90.192,10.146,183.539-11.28,272.973-32.734l-270.742,17.919l0.006-0.089  c-0.196,2.409-0.478,4.815-0.849,7.214C1240.505,1041.422,1240.018,1043.984,1239.515,1046.545z" />
  <path style="fill:#61043B;" d="M1290.518,1443.575l-117.804-257.589c-3.902,1.984-7.795,3.977-11.64,6.039  C1182.348,1283.11,1237.155,1365.289,1290.518,1443.575z" />
  <path style="fill:#61043B;" d="M1210.091,1164.509l-8.833,6.023c-1.657,1.029-3.161,1.93-4.852,2.91l127.499,147.903  C1290.621,1266.082,1255.679,1209.159,1210.091,1164.509z" />
</svg>