<?xml version='1.0' encoding='utf-8'?>
<svg xmlns="http://www.w3.org/2000/svg" version="1.1" role="img" viewBox="0 0 2122 2122">
  <title>Sakura 04 mid shadows</title>
  <path style="fill:#DC638E;" d="M1431.497,1150.445c59.152,34.077,112.143,80.781,153.085,136.68  c29.027,39.63,51.779,83.632,67.657,129.587c6.842-1.202,13.622-2.667,20.316-4.381c-0.864-4.936-1.748-9.868-2.735-14.786  c-4.737-23.572-10.903-46.853-18.53-69.656c-7.187-21.485-16.672-42.051-24.073-63.438c-10.772-31.132-18.488-68.672,0.293-98.419  c21.947-34.759,66.894-42.526,102.189-57.133c19.987-8.272,39.943-19.462,52.992-37.18c0.588-0.798,1.12-1.63,1.69-2.439  c-7.192-8.439-14.383-16.878-21.576-25.317c-1.648-1.934-3.296-3.868-4.945-5.803c-35.072,28.266-74.226,52.169-116.061,70.304  C1575.203,1137.334,1502.501,1151.356,1431.497,1150.445z" />
  <path style="fill:#DC638E;" d="M433.372,1203.959c17.636,12.681,38.126,21.161,57.049,31.68  c16.059,8.927,31.816,19.566,41.877,35.322c11.877,18.6,14.636,43.155,11.388,64.647c-4.719,31.227-18.614,59.907-27.847,89.867  c-7.789,25.275-11.688,51.776-9.941,78.221c10.877,2.597,21.992,4.569,33.243,5.858c11.365-50.528,30.646-99.618,57.442-144.436  c49.418-82.653,123.663-149.769,208.417-191.308c-84.177,26.629-178.161,31.762-267.439,12.669  c-44.584-9.535-87.718-25.073-127.83-45.575c-3.703,5.897-7.406,11.793-11.109,17.69v0  C405.565,1176.718,417.523,1192.562,433.372,1203.959z" />
  <path style="fill:#DC638E;" d="M912.838,1134.432c-0.205-0.782-0.391-1.567-0.56-2.355c-0.224-1.051-0.419-2.108-0.586-3.17  c-0.083-0.531-0.161-1.064-0.232-1.598c-0.096-0.718-0.18-1.438-0.255-2.161c-12.772,8.004-26.053,15.377-39.761,22.106  c13.613-4.257,27.386-7.859,41.268-10.769l0.674-0.137l-0.336-1.137C912.977,1134.953,912.906,1134.693,912.838,1134.432z" />
  <path style="fill:#DC638E;" d="M1276.876,804.767c78.691-82.863,176.247-152.858,291.382-169.513  c36.004-5.208,72.272-4.674,107.213,0.924c2.134-17.841,2.466-35.782,1.174-53.376c-2.633-0.466-5.271-0.914-7.927-1.27  c-25.187-3.371-50.834-2.034-75.93,1.461c-26.166,3.643-51.956,9.529-77.692,15.401c-20.174,4.602-40.281,10.534-61.024,11.938  c-16.472,1.115-33.748-1.108-47.111-11.548c-15.22-11.89-21.435-30.832-25.358-49.011c-7.184-33.288-10.064-67.954-22.917-99.778  c-3.524-8.723-7.994-17.205-13.655-24.751c-14.143,5.831-28.286,11.662-42.429,17.493c-7.931,3.27-16.061,6.74-24.148,10.515  c9.366,18.861,17.077,38.665,22.869,59.172C1328.815,609.779,1312.282,711.041,1276.876,804.767z" />
  <path style="fill:#DC638E;" d="M779.144,627.509c-3.975,12.772-9.909,25.787-20.301,34.626  c-10.738,9.133-24.631,12.158-38.466,11.452c-18.552-0.947-37.093-6.869-54.426-13.204c-36.053-13.177-69.708-32.074-105.839-45.046  c-12.889-4.628-26.124-8.465-39.612-10.89c-6.06,29.798-7.39,61.718-3.093,93.251c125.584-6.136,243.48,50.919,342.527,123.827  c-24.473-59.102-37.828-123.638-37.806-188.434c0.018-51.342,8.465-102.483,24.246-150.759l-45.033-17.181  c-10.234,33.623-9.739,69.627-12.491,104.663C787.325,589.222,784.95,608.855,779.144,627.509z" />
  <path style="fill:#DC638E;" d="M1107.363,1390.013c-10.982,125.718-47.937,254.171-141.622,341.544  c-4.027,3.756-8.141,7.408-12.333,10.955c11.922,13.978,25.104,26.644,39.08,37.75c11.575-9.697,21.804-20.948,30.777-33.071  c21.247-28.705,36.804-61.112,54.844-91.812c8.72-14.838,21.581-29.339,39.126-33.135c16.32-3.53,32.057,3.484,44.202,14.112  c7.787,6.816,13.666,15.13,20.025,23.208c5.777,7.339,11.759,14.523,18.055,21.424c11.794,12.93,24.741,24.979,39.486,34.488  c13.956,8.999,29.364,15.457,45.708,18.537l0.898,0.142c6.72-13.219,13.44-26.437,20.159-39.656  c-12.862-7.582-25.289-16.018-37.154-25.3C1180.932,1600.605,1133.092,1496.986,1107.363,1390.013z" />
</svg>