<?xml version='1.0' encoding='utf-8'?>
<svg xmlns="http://www.w3.org/2000/svg" version="1.1" role="img" viewBox="0 0 2122 2122">
  <title>Sakura 01 base</title>
  <path style="fill:#F7BFCA;" d="M1867.49,816.42c-4.698-1.319-10.201-4.014-10.024-8.518c0.133-3.385,3.523-5.777,6.609-7.623  c4.046-2.42,8.135-4.779,12.265-7.075c7.505-4.174,15.15-8.141,22.914-11.896c-43.156-76.946-128.508-129.856-223.744-145.125  l-0.04-0.006c-34.941-5.598-71.209-6.132-107.213-0.924c-115.135,16.655-212.691,86.65-291.382,169.513  c35.406-93.726,51.939-194.988,24.446-292.343c-5.791-20.507-13.502-40.311-22.869-59.172  c-50.302-101.293-148.377-175.359-253.541-184.832c0.873,13.015-0.338,26.171-3.662,38.785c-1.191,4.522-3.779,9.865-8.457,9.867  c-3.514,0.001-6.122-3.136-8.152-6.005c-2.66-3.761-5.258-7.565-7.795-11.41c-4.947-7.502-9.65-15.164-14.108-22.966  c-4.641,3.209-9.002,7.005-13.213,10.848c-56.116,51.227-98.548,119.527-123.152,194.793  c-15.781,48.276-24.228,99.417-24.246,150.759c-0.022,64.796,13.333,129.333,37.806,188.434  c-99.047-72.909-216.943-129.964-342.527-123.827H517.4c-0.614,0.03-1.229,0.061-1.843,0.095  c-139.262,7.489-265.991,96.137-303.425,213.977c15.952,3.539,31.195,10.3,44.455,19.852c3.795,2.734,7.855,7.064,6.181,11.431  c-1.26,3.282-5.122,4.591-8.528,5.458c-4.465,1.136-8.947,2.198-13.446,3.188c-9.334,2.052-18.739,3.783-28.191,5.197  c2.092,4.389,4.599,8.675,7.166,12.861c43.544,71.02,110.88,130.729,189.963,171.148c40.112,20.501,83.246,36.04,127.83,45.575  c89.278,19.093,183.262,13.96,267.439-12.669c-84.755,41.539-158.999,108.655-208.417,191.308  c-26.797,44.818-46.078,93.908-57.442,144.436l-0.016,0.07c-18.104,80.547-16.086,164.746,7.702,241.124  c1.204,3.866,2.484,7.75,3.965,11.525c15.012-10.213,32.023-17.498,49.805-21.18c5.253-1.088,12.065-1.161,14.458,3.642  c1.799,3.61-0.091,7.891-2,11.444c-2.503,4.655-5.082,9.27-7.735,13.841c-5.554,9.568-11.439,18.943-17.635,28.108  c113.894,54.808,263.455,30.887,365.695-55.592l0.029-0.023c4.192-3.547,8.306-7.199,12.333-10.955  c93.686-87.373,130.64-215.826,141.622-341.544c25.729,106.973,73.569,210.592,161.249,279.186  c11.865,9.282,24.293,17.719,37.154,25.3c100.619,59.311,227.958,66.165,322.898,13.901c-10.446-12.931-18.553-27.755-23.687-43.567  c-1.632-5.028-2.44-11.689,2.006-14.551c3.342-2.151,7.737-0.763,11.422,0.723c4.829,1.948,9.627,3.975,14.388,6.081  c11.282,4.986,22.368,10.416,33.23,16.261c2.188-5.855,3.617-12.141,4.859-18.364c15.403-77.212,8.215-160.534-18.642-238.268  l-0.001-0.005c-15.879-45.955-38.63-89.957-67.657-129.587c-40.942-55.899-93.933-102.602-153.085-136.68  c71.004,0.911,143.706-13.11,210.303-41.981c41.835-18.135,80.989-42.038,116.061-70.304  c66.571-53.652,118.431-123.028,145.978-198.542c2.183-5.981,4.231-12.112,5.35-18.239  C1895.122,821.854,1880.963,820.202,1867.49,816.42z" />
</svg>